<?xml version="1.0" encoding="UTF-8"?>
<svg version="1.1" viewBox="0 0 560.53 532.45" xmlns="http://www.w3.org/2000/svg"><g transform="translate(-83.554,-69.689)" fill="none" stroke="#000"><path d="m348.03 352.66c7.1068 21.689-25.864 18.678-28.628-4.9609-2.0136-39.18 43.971-54.34 68.012-31.364 30.048 22.577 24.736 71.163-4.8807 91.615-35.454 28.311-91.417 10.039-109.54-29.771-23.03-43.27 1.1574-99.791 44.792-118.87 53.345-26.877 122.55 7.2899 139.82 63.078 22.612 59.305-15.875 129.46-75.024 148.54-61.727 23.103-135.21-11.285-161.56-70.583-27.461-56.536-10.342-128.61 37.268-168.88 50.141-45.164 129.86-49.76 185.85-12.629 65.055 40.108 93.151 127.66 65.843 198.58-24.459 68.977-95.328 118.49-167.98 116.59-35.809 1.5975-72.126-10.291-102.46-29.84-45.397-28.842-77.252-78.677-85.646-132.26-2.958-16.213-2.7505-33.413-1.8915-50.3 3.8058-27.796 11.326-56.819 27-80.599 10.994-22.425 29.697-41.71 49-58 43.895-34.856 104.12-52.508 160.78-43.579 61.046 8.2603 117.13 44.656 150.88 95.867 37.78 56.569 47.811 131.27 25.363 195.83-18.788 56.922-60.803 105.59-114.14 133.01-41.45 21.789-89.315 30.061-135.88 25.87-4.5402-1.6866-12.335-1.6705-18-3-4.8063-1.3021-12.288-2.4681-17-4-30.895-7.4501-63.765-23.586-89.633-44.549-77.319-59.818-113.15-166.72-87.424-261.04 20.082-79.76 80.605-147.7 157.06-177.41 4.6063-1.8987 8.4534-3.8736 14-5 4.9019-2.7876 11.435-3.526 16-5 4.7472-2.0057 10.617-2.2555 15-4 5.2946-0.67492 11.994-1.541 16-3 6.8454 0.51212 10.892-1.7746 18-1 5.3458-2.3208 14.991-0.34268 22-1 89.385-0.78089 176.74 48.945 225.99 123.44 28.839 42.756 45.22 93.96 46.005 145.56" fill="none" stroke="#000" stroke-linejoin="bevel" stroke-width="22.167" style="paint-order:fill markers stroke"/></g></svg>
