<?xml version="1.0" encoding="UTF-8" standalone="no"?>
<svg
   xmlns:dc="http://purl.org/dc/elements/1.1/"
   xmlns:cc="http://creativecommons.org/ns#"
   xmlns:rdf="http://www.w3.org/1999/02/22-rdf-syntax-ns#"
   xmlns:svg="http://www.w3.org/2000/svg"
   xmlns="http://www.w3.org/2000/svg"
   xmlns:sodipodi="http://sodipodi.sourceforge.net/DTD/sodipodi-0.dtd"
   xmlns:inkscape="http://www.inkscape.org/namespaces/inkscape"
   sodipodi:docname="gosper_order1.svg"
   id="svg1051"
   version="1.1"
   height="107.51262"
   width="107.27924"
   inkscape:version="1.0.2 (e86c870879, 2021-01-15)">
  <metadata
     id="metadata1057">
    <rdf:RDF>
      <cc:Work
         rdf:about="">
        <dc:format>image/svg+xml</dc:format>
        <dc:type
           rdf:resource="http://purl.org/dc/dcmitype/StillImage" />
      </cc:Work>
    </rdf:RDF>
  </metadata>
  <defs
     id="defs1055" />
  <sodipodi:namedview
     pagecolor="#ffffff"
     bordercolor="#666666"
     borderopacity="1"
     objecttolerance="10"
     gridtolerance="10"
     guidetolerance="10"
     inkscape:pageopacity="0"
     inkscape:pageshadow="2"
     inkscape:window-width="1920"
     inkscape:window-height="1080"
     id="namedview1053"
     showgrid="false"
     inkscape:zoom="0.908"
     inkscape:cx="-155.05069"
     inkscape:cy="81.094535"
     inkscape:window-x="0"
     inkscape:window-y="0"
     inkscape:window-maximized="1"
     inkscape:current-layer="svg1051" />
  <path
     id="path1049"
     d="m 77.651077,2.6717644 1,13.9999996 -12,-5 -12,6 23,13 13,-5 13.000003,5 1,30 -12.000003,-5 -1,-15 -12,5 -1,15 12,7 1,30 -12,-6 -1,-14 -12,5 v 15 l -12,6.999996 -26,-12.999996 11,-6 13,5 1,-13 -12,-7 -1,-15 12,-7 1,13 12,8 1,-29 -12,-7 -13,6 -13,-6 11,-7 1,-14 -25,12 v 14 l 11,7 1,30 -12,-5 v -15 l -11.9999998,5 -1,16"
     style="fill:none;stroke:#000000;stroke-width:5;stroke-linecap:square;stroke-linejoin:miter;stroke-miterlimit:4;stroke-dasharray:none;stroke-opacity:1;paint-order:markers stroke fill"
     sodipodi:nodetypes="cccccccccccccccccccccccccccccccccccccccccc" />
</svg>
