<?xml version="1.0" encoding="UTF-8"?>
<svg width="1e3" height="1e3" version="1.1" xmlns="http://www.w3.org/2000/svg" xmlns:cc="http://creativecommons.org/ns#" xmlns:dc="http://purl.org/dc/elements/1.1/" xmlns:rdf="http://www.w3.org/1999/02/22-rdf-syntax-ns#">
 <metadata>
  <rdf:RDF>
   <cc:Work rdf:about="">
    <dc:format>image/svg+xml</dc:format>
    <dc:type rdf:resource="http://purl.org/dc/dcmitype/StillImage"/>
    <dc:title/>
   </cc:Work>
  </rdf:RDF>
 </metadata>
 <g stroke-width="4">
  <g fill="#fff" stroke="#000" style="paint-order:markers fill stroke">
   <rect x="-40" y="990" width="80" height="80" style="paint-order:markers fill stroke"/>
   <rect x="-60" y="780" width="80" height="80" style="paint-order:markers fill stroke"/>
   <rect x="-10" y="860" width="80" height="80" style="paint-order:markers fill stroke"/>
  </g>
  <rect x="-10" y="940" width="50" height="50" style="paint-order:markers fill stroke"/>
  <rect x="40" y="940" width="80" height="80" fill="#fff" stroke="#000" style="paint-order:markers fill stroke"/>
  <rect x="-30" y="650" width="80" height="80" fill="#fff" stroke="#000" style="paint-order:markers fill stroke"/>
  <rect x="-30" y="730" width="50" height="50" style="paint-order:markers fill stroke"/>
  <rect x="20" y="730" width="80" height="80" fill="#fff" stroke="#000" style="paint-order:markers fill stroke"/>
  <rect x="20" y="810" width="50" height="50" style="paint-order:markers fill stroke"/>
  <rect x="70" y="810" width="80" height="80" fill="#fff" stroke="#000" style="paint-order:markers fill stroke"/>
  <rect x="70" y="890" width="50" height="50" style="paint-order:markers fill stroke"/>
  <rect x="120" y="890" width="80" height="80" fill="#fff" stroke="#000" style="paint-order:markers fill stroke"/>
  <rect x="120" y="970" width="50" height="50" style="paint-order:markers fill stroke"/>
  <g fill="#fff" stroke="#000" style="paint-order:markers fill stroke">
   <rect x="170" y="970" width="80" height="80" style="paint-order:markers fill stroke"/>
   <rect x="-50" y="440" width="80" height="80" style="paint-order:markers fill stroke"/>
   <rect y="520" width="80" height="80" style="paint-order:markers fill stroke"/>
  </g>
  <rect y="600" width="50" height="50" style="paint-order:markers fill stroke"/>
  <rect x="50" y="600" width="80" height="80" fill="#fff" stroke="#000" style="paint-order:markers fill stroke"/>
  <rect x="50" y="680" width="50" height="50" style="paint-order:markers fill stroke"/>
  <rect x="100" y="680" width="80" height="80" fill="#fff" stroke="#000" style="paint-order:markers fill stroke"/>
  <rect x="100" y="760" width="50" height="50" style="paint-order:markers fill stroke"/>
  <rect x="150" y="760" width="80" height="80" fill="#fff" stroke="#000" style="paint-order:markers fill stroke"/>
  <rect x="150" y="840" width="50" height="50" style="paint-order:markers fill stroke"/>
  <rect x="200" y="840" width="80" height="80" fill="#fff" stroke="#000" style="paint-order:markers fill stroke"/>
  <rect x="200" y="920" width="50" height="50" style="paint-order:markers fill stroke"/>
  <g fill="#fff" stroke="#000" style="paint-order:markers fill stroke">
   <rect x="250" y="920" width="80" height="80" style="paint-order:markers fill stroke"/>
   <rect x="-70" y="230" width="80" height="80" style="paint-order:markers fill stroke"/>
   <rect x="-20" y="310" width="80" height="80" style="paint-order:markers fill stroke"/>
  </g>
  <rect x="-20" y="390" width="50" height="50" style="paint-order:markers fill stroke"/>
  <rect x="30" y="390" width="80" height="80" fill="#fff" stroke="#000" style="paint-order:markers fill stroke"/>
  <rect x="30" y="470" width="50" height="50" style="paint-order:markers fill stroke"/>
  <rect x="80" y="470" width="80" height="80" fill="#fff" stroke="#000" style="paint-order:markers fill stroke"/>
  <rect x="80" y="550" width="50" height="50" style="paint-order:markers fill stroke"/>
  <rect x="130" y="550" width="80" height="80" fill="#fff" stroke="#000" style="paint-order:markers fill stroke"/>
  <rect x="130" y="630" width="50" height="50" style="paint-order:markers fill stroke"/>
  <rect x="180" y="630" width="80" height="80" fill="#fff" stroke="#000" style="paint-order:markers fill stroke"/>
  <rect x="180" y="710" width="50" height="50" style="paint-order:markers fill stroke"/>
  <rect x="230" y="710" width="80" height="80" fill="#fff" stroke="#000" style="paint-order:markers fill stroke"/>
  <rect x="230" y="790" width="50" height="50" style="paint-order:markers fill stroke"/>
  <rect x="280" y="790" width="80" height="80" fill="#fff" stroke="#000" style="paint-order:markers fill stroke"/>
  <rect x="280" y="870" width="50" height="50" style="paint-order:markers fill stroke"/>
  <rect x="330" y="870" width="80" height="80" fill="#fff" stroke="#000" style="paint-order:markers fill stroke"/>
  <rect x="330" y="950" width="50" height="50" style="paint-order:markers fill stroke"/>
  <rect x="380" y="950" width="80" height="80" fill="#fff" stroke="#000" style="paint-order:markers fill stroke"/>
  <rect x="-40" y="100" width="80" height="80" fill="#fff" stroke="#000" style="paint-order:markers fill stroke"/>
  <rect x="-40" y="180" width="50" height="50" style="paint-order:markers fill stroke"/>
  <rect x="10" y="180" width="80" height="80" fill="#fff" stroke="#000" style="paint-order:markers fill stroke"/>
  <rect x="10" y="260" width="50" height="50" style="paint-order:markers fill stroke"/>
  <rect x="60" y="260" width="80" height="80" fill="#fff" stroke="#000" style="paint-order:markers fill stroke"/>
  <rect x="60" y="340" width="50" height="50" style="paint-order:markers fill stroke"/>
  <rect x="110" y="340" width="80" height="80" fill="#fff" stroke="#000" style="paint-order:markers fill stroke"/>
  <rect x="110" y="420" width="50" height="50" style="paint-order:markers fill stroke"/>
  <rect x="160" y="420" width="80" height="80" fill="#fff" stroke="#000" style="paint-order:markers fill stroke"/>
  <rect x="160" y="500" width="50" height="50" style="paint-order:markers fill stroke"/>
  <rect x="210" y="500" width="80" height="80" fill="#fff" stroke="#000" style="paint-order:markers fill stroke"/>
  <rect x="210" y="580" width="50" height="50" style="paint-order:markers fill stroke"/>
  <rect x="260" y="580" width="80" height="80" fill="#fff" stroke="#000" style="paint-order:markers fill stroke"/>
  <rect x="260" y="660" width="50" height="50" style="paint-order:markers fill stroke"/>
  <rect x="310" y="660" width="80" height="80" fill="#fff" stroke="#000" style="paint-order:markers fill stroke"/>
  <rect x="310" y="740" width="50" height="50" style="paint-order:markers fill stroke"/>
  <rect x="360" y="740" width="80" height="80" fill="#fff" stroke="#000" style="paint-order:markers fill stroke"/>
  <rect x="360" y="820" width="50" height="50" style="paint-order:markers fill stroke"/>
  <rect x="410" y="820" width="80" height="80" fill="#fff" stroke="#000" style="paint-order:markers fill stroke"/>
  <rect x="410" y="900" width="50" height="50" style="paint-order:markers fill stroke"/>
  <rect x="460" y="900" width="80" height="80" fill="#fff" stroke="#000" style="paint-order:markers fill stroke"/>
  <rect x="460" y="980" width="50" height="50" style="paint-order:markers fill stroke"/>
  <rect x="510" y="980" width="80" height="80" fill="#fff" stroke="#000" style="paint-order:markers fill stroke"/>
  <rect x="-10" y="-30" width="80" height="80" fill="#fff" stroke="#000" style="paint-order:markers fill stroke"/>
  <rect x="-10" y="50" width="50" height="50" style="paint-order:markers fill stroke"/>
  <rect x="40" y="50" width="80" height="80" fill="#fff" stroke="#000" style="paint-order:markers fill stroke"/>
  <rect x="40" y="130" width="50" height="50" style="paint-order:markers fill stroke"/>
  <rect x="90" y="130" width="80" height="80" fill="#fff" stroke="#000" style="paint-order:markers fill stroke"/>
  <rect x="90" y="210" width="50" height="50" style="paint-order:markers fill stroke"/>
  <rect x="140" y="210" width="80" height="80" fill="#fff" stroke="#000" style="paint-order:markers fill stroke"/>
  <rect x="140" y="290" width="50" height="50" style="paint-order:markers fill stroke"/>
  <rect x="190" y="290" width="80" height="80" fill="#fff" stroke="#000" style="paint-order:markers fill stroke"/>
  <rect x="190" y="370" width="50" height="50" style="paint-order:markers fill stroke"/>
  <rect x="240" y="370" width="80" height="80" fill="#fff" stroke="#000" style="paint-order:markers fill stroke"/>
  <rect x="240" y="450" width="50" height="50" style="paint-order:markers fill stroke"/>
  <rect x="290" y="450" width="80" height="80" fill="#fff" stroke="#000" style="paint-order:markers fill stroke"/>
  <rect x="290" y="530" width="50" height="50" style="paint-order:markers fill stroke"/>
  <rect x="340" y="530" width="80" height="80" fill="#fff" stroke="#000" style="paint-order:markers fill stroke"/>
  <rect x="340" y="610" width="50" height="50" style="paint-order:markers fill stroke"/>
  <rect x="390" y="610" width="80" height="80" fill="#fff" stroke="#000" style="paint-order:markers fill stroke"/>
  <rect x="390" y="690" width="50" height="50" style="paint-order:markers fill stroke"/>
  <rect x="440" y="690" width="80" height="80" fill="#fff" stroke="#000" style="paint-order:markers fill stroke"/>
  <rect x="440" y="770" width="50" height="50" style="paint-order:markers fill stroke"/>
  <rect x="490" y="770" width="80" height="80" fill="#fff" stroke="#000" style="paint-order:markers fill stroke"/>
  <rect x="490" y="850" width="50" height="50" style="paint-order:markers fill stroke"/>
  <rect x="540" y="850" width="80" height="80" fill="#fff" stroke="#000" style="paint-order:markers fill stroke"/>
  <rect x="540" y="930" width="50" height="50" style="paint-order:markers fill stroke"/>
  <rect x="590" y="930" width="80" height="80" fill="#fff" stroke="#000" style="paint-order:markers fill stroke"/>
  <rect x="70" width="50" height="50" style="paint-order:markers fill stroke"/>
  <rect x="120" width="80" height="80" fill="#fff" stroke="#000" style="paint-order:markers fill stroke"/>
  <rect x="120" y="80" width="50" height="50" style="paint-order:markers fill stroke"/>
  <rect x="170" y="80" width="80" height="80" fill="#fff" stroke="#000" style="paint-order:markers fill stroke"/>
  <rect x="170" y="160" width="50" height="50" style="paint-order:markers fill stroke"/>
  <rect x="220" y="160" width="80" height="80" fill="#fff" stroke="#000" style="paint-order:markers fill stroke"/>
  <rect x="220" y="240" width="50" height="50" style="paint-order:markers fill stroke"/>
  <rect x="270" y="240" width="80" height="80" fill="#fff" stroke="#000" style="paint-order:markers fill stroke"/>
  <rect x="270" y="320" width="50" height="50" style="paint-order:markers fill stroke"/>
  <rect x="320" y="320" width="80" height="80" fill="#fff" stroke="#000" style="paint-order:markers fill stroke"/>
  <rect x="320" y="400" width="50" height="50" style="paint-order:markers fill stroke"/>
  <rect x="370" y="400" width="80" height="80" fill="#fff" stroke="#000" style="paint-order:markers fill stroke"/>
  <rect x="370" y="480" width="50" height="50" style="paint-order:markers fill stroke"/>
  <rect x="420" y="480" width="80" height="80" fill="#fff" stroke="#000" style="paint-order:markers fill stroke"/>
  <rect x="420" y="560" width="50" height="50" style="paint-order:markers fill stroke"/>
  <rect x="470" y="560" width="80" height="80" fill="#fff" stroke="#000" style="paint-order:markers fill stroke"/>
  <rect x="470" y="640" width="50" height="50" style="paint-order:markers fill stroke"/>
  <rect x="520" y="640" width="80" height="80" fill="#fff" stroke="#000" style="paint-order:markers fill stroke"/>
  <rect x="520" y="720" width="50" height="50" style="paint-order:markers fill stroke"/>
  <rect x="570" y="720" width="80" height="80" fill="#fff" stroke="#000" style="paint-order:markers fill stroke"/>
  <rect x="570" y="800" width="50" height="50" style="paint-order:markers fill stroke"/>
  <rect x="620" y="800" width="80" height="80" fill="#fff" stroke="#000" style="paint-order:markers fill stroke"/>
  <rect x="620" y="880" width="50" height="50" style="paint-order:markers fill stroke"/>
  <rect x="670" y="880" width="80" height="80" fill="#fff" stroke="#000" style="paint-order:markers fill stroke"/>
  <rect x="670" y="960" width="50" height="50" style="paint-order:markers fill stroke"/>
  <rect x="720" y="960" width="80" height="80" fill="#fff" stroke="#000" style="paint-order:markers fill stroke"/>
  <rect x="200" y="-50" width="80" height="80" fill="#fff" stroke="#000" style="paint-order:markers fill stroke"/>
  <rect x="200" y="30" width="50" height="50" style="paint-order:markers fill stroke"/>
  <rect x="250" y="30" width="80" height="80" fill="#fff" stroke="#000" style="paint-order:markers fill stroke"/>
  <rect x="250" y="110" width="50" height="50" style="paint-order:markers fill stroke"/>
  <rect x="300" y="110" width="80" height="80" fill="#fff" stroke="#000" style="paint-order:markers fill stroke"/>
  <rect x="300" y="190" width="50" height="50" style="paint-order:markers fill stroke"/>
  <rect x="350" y="190" width="80" height="80" fill="#fff" stroke="#000" style="paint-order:markers fill stroke"/>
  <rect x="350" y="270" width="50" height="50" style="paint-order:markers fill stroke"/>
  <rect x="400" y="270" width="80" height="80" fill="#fff" stroke="#000" style="paint-order:markers fill stroke"/>
  <rect x="400" y="350" width="50" height="50" style="paint-order:markers fill stroke"/>
  <rect x="450" y="350" width="80" height="80" fill="#fff" stroke="#000" style="paint-order:markers fill stroke"/>
  <rect x="450" y="430" width="50" height="50" style="paint-order:markers fill stroke"/>
  <rect x="500" y="430" width="80" height="80" fill="#fff" stroke="#000" style="paint-order:markers fill stroke"/>
  <rect x="500" y="510" width="50" height="50" style="paint-order:markers fill stroke"/>
  <rect x="550" y="510" width="80" height="80" fill="#fff" stroke="#000" style="paint-order:markers fill stroke"/>
  <rect x="550" y="590" width="50" height="50" style="paint-order:markers fill stroke"/>
  <rect x="600" y="590" width="80" height="80" fill="#fff" stroke="#000" style="paint-order:markers fill stroke"/>
  <rect x="600" y="670" width="50" height="50" style="paint-order:markers fill stroke"/>
  <rect x="650" y="670" width="80" height="80" fill="#fff" stroke="#000" style="paint-order:markers fill stroke"/>
  <rect x="650" y="750" width="50" height="50" style="paint-order:markers fill stroke"/>
  <rect x="700" y="750" width="80" height="80" fill="#fff" stroke="#000" style="paint-order:markers fill stroke"/>
  <rect x="700" y="830" width="50" height="50" style="paint-order:markers fill stroke"/>
  <rect x="750" y="830" width="80" height="80" fill="#fff" stroke="#000" style="paint-order:markers fill stroke"/>
  <rect x="750" y="910" width="50" height="50" style="paint-order:markers fill stroke"/>
  <rect x="800" y="910" width="80" height="80" fill="#fff" stroke="#000" style="paint-order:markers fill stroke"/>
  <rect x="800" y="990" width="50" height="50" style="paint-order:markers fill stroke"/>
  <rect x="850" y="990" width="80" height="80" fill="#fff" stroke="#000" style="paint-order:markers fill stroke"/>
  <rect x="280" y="-20" width="50" height="50" style="paint-order:markers fill stroke"/>
  <rect x="330" y="-20" width="80" height="80" fill="#fff" stroke="#000" style="paint-order:markers fill stroke"/>
  <rect x="330" y="60" width="50" height="50" style="paint-order:markers fill stroke"/>
  <rect x="380" y="60" width="80" height="80" fill="#fff" stroke="#000" style="paint-order:markers fill stroke"/>
  <rect x="380" y="140" width="50" height="50" style="paint-order:markers fill stroke"/>
  <rect x="430" y="140" width="80" height="80" fill="#fff" stroke="#000" style="paint-order:markers fill stroke"/>
  <rect x="430" y="220" width="50" height="50" style="paint-order:markers fill stroke"/>
  <rect x="480" y="220" width="80" height="80" fill="#fff" stroke="#000" style="paint-order:markers fill stroke"/>
  <rect x="480" y="300" width="50" height="50" style="paint-order:markers fill stroke"/>
  <rect x="530" y="300" width="80" height="80" fill="#fff" stroke="#000" style="paint-order:markers fill stroke"/>
  <rect x="530" y="380" width="50" height="50" style="paint-order:markers fill stroke"/>
  <rect x="580" y="380" width="80" height="80" fill="#fff" stroke="#000" style="paint-order:markers fill stroke"/>
  <rect x="580" y="460" width="50" height="50" style="paint-order:markers fill stroke"/>
  <rect x="630" y="460" width="80" height="80" fill="#fff" stroke="#000" style="paint-order:markers fill stroke"/>
  <rect x="630" y="540" width="50" height="50" style="paint-order:markers fill stroke"/>
  <rect x="680" y="540" width="80" height="80" fill="#fff" stroke="#000" style="paint-order:markers fill stroke"/>
  <rect x="680" y="620" width="50" height="50" style="paint-order:markers fill stroke"/>
  <rect x="730" y="620" width="80" height="80" fill="#fff" stroke="#000" style="paint-order:markers fill stroke"/>
  <rect x="730" y="700" width="50" height="50" style="paint-order:markers fill stroke"/>
  <rect x="780" y="700" width="80" height="80" fill="#fff" stroke="#000" style="paint-order:markers fill stroke"/>
  <rect x="780" y="780" width="50" height="50" style="paint-order:markers fill stroke"/>
  <rect x="830" y="780" width="80" height="80" fill="#fff" stroke="#000" style="paint-order:markers fill stroke"/>
  <rect x="830" y="860" width="50" height="50" style="paint-order:markers fill stroke"/>
  <rect x="880" y="860" width="80" height="80" fill="#fff" stroke="#000" style="paint-order:markers fill stroke"/>
  <rect x="880" y="940" width="50" height="50" style="paint-order:markers fill stroke"/>
  <rect x="930" y="940" width="80" height="80" fill="#fff" stroke="#000" style="paint-order:markers fill stroke"/>
  <rect x="410" y="-70" width="80" height="80" fill="#fff" stroke="#000" style="paint-order:markers fill stroke"/>
  <rect x="410" y="10" width="50" height="50" style="paint-order:markers fill stroke"/>
  <rect x="460" y="10" width="80" height="80" fill="#fff" stroke="#000" style="paint-order:markers fill stroke"/>
  <rect x="460" y="90" width="50" height="50" style="paint-order:markers fill stroke"/>
  <rect x="510" y="90" width="80" height="80" fill="#fff" stroke="#000" style="paint-order:markers fill stroke"/>
  <rect x="510" y="170" width="50" height="50" style="paint-order:markers fill stroke"/>
  <rect x="560" y="170" width="80" height="80" fill="#fff" stroke="#000" style="paint-order:markers fill stroke"/>
  <rect x="560" y="250" width="50" height="50" style="paint-order:markers fill stroke"/>
  <rect x="610" y="250" width="80" height="80" fill="#fff" stroke="#000" style="paint-order:markers fill stroke"/>
  <rect x="610" y="330" width="50" height="50" style="paint-order:markers fill stroke"/>
  <rect x="660" y="330" width="80" height="80" fill="#fff" stroke="#000" style="paint-order:markers fill stroke"/>
  <rect x="660" y="410" width="50" height="50" style="paint-order:markers fill stroke"/>
  <rect x="710" y="410" width="80" height="80" fill="#fff" stroke="#000" style="paint-order:markers fill stroke"/>
  <rect x="710" y="490" width="50" height="50" style="paint-order:markers fill stroke"/>
  <rect x="760" y="490" width="80" height="80" fill="#fff" stroke="#000" style="paint-order:markers fill stroke"/>
  <rect x="760" y="570" width="50" height="50" style="paint-order:markers fill stroke"/>
  <rect x="810" y="570" width="80" height="80" fill="#fff" stroke="#000" style="paint-order:markers fill stroke"/>
  <rect x="810" y="650" width="50" height="50" style="paint-order:markers fill stroke"/>
  <rect x="860" y="650" width="80" height="80" fill="#fff" stroke="#000" style="paint-order:markers fill stroke"/>
  <rect x="860" y="730" width="50" height="50" style="paint-order:markers fill stroke"/>
  <rect x="910" y="730" width="80" height="80" fill="#fff" stroke="#000" style="paint-order:markers fill stroke"/>
  <rect x="910" y="810" width="50" height="50" style="paint-order:markers fill stroke"/>
  <rect x="960" y="810" width="80" height="80" fill="#fff" stroke="#000" style="paint-order:markers fill stroke"/>
  <rect x="960" y="890" width="50" height="50" style="paint-order:markers fill stroke"/>
  <rect x="490" y="-40" width="50" height="50" style="paint-order:markers fill stroke"/>
  <rect x="540" y="-40" width="80" height="80" fill="#fff" stroke="#000" style="paint-order:markers fill stroke"/>
  <rect x="540" y="40" width="50" height="50" style="paint-order:markers fill stroke"/>
  <rect x="590" y="40" width="80" height="80" fill="#fff" stroke="#000" style="paint-order:markers fill stroke"/>
  <rect x="590" y="120" width="50" height="50" style="paint-order:markers fill stroke"/>
  <rect x="640" y="120" width="80" height="80" fill="#fff" stroke="#000" style="paint-order:markers fill stroke"/>
  <rect x="640" y="200" width="50" height="50" style="paint-order:markers fill stroke"/>
  <rect x="690" y="200" width="80" height="80" fill="#fff" stroke="#000" style="paint-order:markers fill stroke"/>
  <rect x="690" y="280" width="50" height="50" style="paint-order:markers fill stroke"/>
  <rect x="740" y="280" width="80" height="80" fill="#fff" stroke="#000" style="paint-order:markers fill stroke"/>
  <rect x="740" y="360" width="50" height="50" style="paint-order:markers fill stroke"/>
  <rect x="790" y="360" width="80" height="80" fill="#fff" stroke="#000" style="paint-order:markers fill stroke"/>
  <rect x="790" y="440" width="50" height="50" style="paint-order:markers fill stroke"/>
  <rect x="840" y="440" width="80" height="80" fill="#fff" stroke="#000" style="paint-order:markers fill stroke"/>
  <rect x="840" y="520" width="50" height="50" style="paint-order:markers fill stroke"/>
  <rect x="890" y="520" width="80" height="80" fill="#fff" stroke="#000" style="paint-order:markers fill stroke"/>
  <rect x="890" y="600" width="50" height="50" style="paint-order:markers fill stroke"/>
  <rect x="940" y="600" width="80" height="80" fill="#fff" stroke="#000" style="paint-order:markers fill stroke"/>
  <rect x="940" y="680" width="50" height="50" style="paint-order:markers fill stroke"/>
  <rect x="990" y="680" width="80" height="80" fill="#fff" stroke="#000" style="paint-order:markers fill stroke"/>
  <rect x="990" y="760" width="50" height="50" style="paint-order:markers fill stroke"/>
  <rect x="620" y="-10" width="50" height="50" style="paint-order:markers fill stroke"/>
  <rect x="670" y="-10" width="80" height="80" fill="#fff" stroke="#000" style="paint-order:markers fill stroke"/>
  <rect x="670" y="70" width="50" height="50" style="paint-order:markers fill stroke"/>
  <rect x="720" y="70" width="80" height="80" fill="#fff" stroke="#000" style="paint-order:markers fill stroke"/>
  <rect x="720" y="150" width="50" height="50" style="paint-order:markers fill stroke"/>
  <rect x="770" y="150" width="80" height="80" fill="#fff" stroke="#000" style="paint-order:markers fill stroke"/>
  <rect x="770" y="230" width="50" height="50" style="paint-order:markers fill stroke"/>
  <rect x="820" y="230" width="80" height="80" fill="#fff" stroke="#000" style="paint-order:markers fill stroke"/>
  <rect x="820" y="310" width="50" height="50" style="paint-order:markers fill stroke"/>
  <rect x="870" y="310" width="80" height="80" fill="#fff" stroke="#000" style="paint-order:markers fill stroke"/>
  <rect x="870" y="390" width="50" height="50" style="paint-order:markers fill stroke"/>
  <rect x="920" y="390" width="80" height="80" fill="#fff" stroke="#000" style="paint-order:markers fill stroke"/>
  <rect x="920" y="470" width="50" height="50" style="paint-order:markers fill stroke"/>
  <rect x="970" y="470" width="80" height="80" fill="#fff" stroke="#000" style="paint-order:markers fill stroke"/>
  <rect x="970" y="550" width="50" height="50" style="paint-order:markers fill stroke"/>
  <rect x="750" y="-60" width="80" height="80" fill="#fff" stroke="#000" style="paint-order:markers fill stroke"/>
  <rect x="750" y="20" width="50" height="50" style="paint-order:markers fill stroke"/>
  <rect x="800" y="20" width="80" height="80" fill="#fff" stroke="#000" style="paint-order:markers fill stroke"/>
  <rect x="800" y="100" width="50" height="50" style="paint-order:markers fill stroke"/>
  <rect x="850" y="100" width="80" height="80" fill="#fff" stroke="#000" style="paint-order:markers fill stroke"/>
  <rect x="850" y="180" width="50" height="50" style="paint-order:markers fill stroke"/>
  <rect x="900" y="180" width="80" height="80" fill="#fff" stroke="#000" style="paint-order:markers fill stroke"/>
  <rect x="900" y="260" width="50" height="50" style="paint-order:markers fill stroke"/>
  <rect x="950" y="260" width="80" height="80" fill="#fff" stroke="#000" style="paint-order:markers fill stroke"/>
  <rect x="950" y="340" width="50" height="50" style="paint-order:markers fill stroke"/>
  <rect x="830" y="-30" width="50" height="50" style="paint-order:markers fill stroke"/>
  <rect x="880" y="-30" width="80" height="80" fill="#fff" stroke="#000" style="paint-order:markers fill stroke"/>
  <rect x="880" y="50" width="50" height="50" style="paint-order:markers fill stroke"/>
  <rect x="930" y="50" width="80" height="80" fill="#fff" stroke="#000" style="paint-order:markers fill stroke"/>
  <rect x="930" y="130" width="50" height="50" style="paint-order:markers fill stroke"/>
  <rect x="980" y="130" width="80" height="80" fill="#fff" stroke="#000" style="paint-order:markers fill stroke"/>
  <rect x="980" y="210" width="50" height="50" style="paint-order:markers fill stroke"/>
  <rect x="960" width="50" height="50" style="paint-order:markers fill stroke"/>
 </g>
</svg>
