<?xml version="1.0" encoding="UTF-8"?>
<svg version="1.1" viewBox="0 0 210.32 209.86" xmlns="http://www.w3.org/2000/svg"><path d="m148.61 198.53c15.767-1.6651 33.235-6.9508 42.034-21.199 10.324-18.98 8.9663-32.27 8.9663-49.404 0.058-21.892 0.61772-57.126-1.5434-73.468-2.3016-13.597-7.9333-28.213-20.755-35.082-15.005-8.9898-33.027-7.5475-49.795-8.4512-24.58-0.70931-49.238-0.4721-73.758 1.2503-16.998 2.4976-34.45 13.469-38.536 31.087-5.6545 18.114-4.493 43.927-4.493 66.137 0.41531 22.475-0.73171 49.749 9.4826 68.331 10.233 15.406 29.852 21.056 47.52 20.417 26.937 1.4531 53.927 1.5124 80.878 0.38192z" fill="none" stroke="#000" stroke-width="21.1"/></svg>
