<?xml version="1.0" encoding="UTF-8" standalone="no"?>
<svg
   xmlns:dc="http://purl.org/dc/elements/1.1/"
   xmlns:cc="http://creativecommons.org/ns#"
   xmlns:rdf="http://www.w3.org/1999/02/22-rdf-syntax-ns#"
   xmlns:svg="http://www.w3.org/2000/svg"
   xmlns="http://www.w3.org/2000/svg"
   xmlns:sodipodi="http://sodipodi.sourceforge.net/DTD/sodipodi-0.dtd"
   xmlns:inkscape="http://www.inkscape.org/namespaces/inkscape"
   width="162.33728mm"
   height="44.053329mm"
   viewBox="0 0 162.33728 44.053329"
   version="1.1"
   id="svg4166"
   inkscape:version="1.0.2 (e86c870879, 2021-01-15)"
   sodipodi:docname="xshear.svg">
  <defs
     id="defs4160">
    <marker
       style="overflow:visible"
       id="marker5582"
       refX="0"
       refY="0"
       orient="auto"
       inkscape:stockid="Arrow1Mend"
       inkscape:isstock="true">
      <path
         transform="matrix(-0.4,0,0,-0.4,-4,0)"
         style="fill:#000000;fill-opacity:1;fill-rule:evenodd;stroke:#000000;stroke-width:1pt;stroke-opacity:1"
         d="M 0,0 5,-5 -12.5,0 5,5 Z"
         id="path5580" />
    </marker>
    <marker
       style="overflow:visible"
       id="marker5518"
       refX="0"
       refY="0"
       orient="auto"
       inkscape:stockid="Arrow1Mend"
       inkscape:isstock="true">
      <path
         transform="matrix(-0.4,0,0,-0.4,-4,0)"
         style="fill:#000000;fill-opacity:1;fill-rule:evenodd;stroke:#000000;stroke-width:1pt;stroke-opacity:1"
         d="M 0,0 5,-5 -12.5,0 5,5 Z"
         id="path5516" />
    </marker>
    <marker
       style="overflow:visible"
       id="Arrow1Lend"
       refX="0"
       refY="0"
       orient="auto"
       inkscape:stockid="Arrow1Lend"
       inkscape:isstock="true">
      <path
         transform="matrix(-0.8,0,0,-0.8,-10,0)"
         style="fill:#000000;fill-opacity:1;fill-rule:evenodd;stroke:#000000;stroke-width:1pt;stroke-opacity:1"
         d="M 0,0 5,-5 -12.5,0 5,5 Z"
         id="path4819" />
    </marker>
    <marker
       style="overflow:visible"
       id="marker5326"
       refX="0"
       refY="0"
       orient="auto"
       inkscape:stockid="TriangleOutS"
       inkscape:isstock="true">
      <path
         transform="scale(0.2)"
         style="fill:#000000;fill-opacity:1;fill-rule:evenodd;stroke:#000000;stroke-width:1pt;stroke-opacity:1"
         d="M 5.77,0 -2.88,5 V -5 Z"
         id="path5324" />
    </marker>
    <marker
       style="overflow:visible"
       id="Arrow1Mstart"
       refX="0"
       refY="0"
       orient="auto"
       inkscape:stockid="Arrow1Mstart"
       inkscape:isstock="true">
      <path
         transform="matrix(0.4,0,0,0.4,4,0)"
         style="fill:#000000;fill-opacity:1;fill-rule:evenodd;stroke:#000000;stroke-width:1pt;stroke-opacity:1"
         d="M 0,0 5,-5 -12.5,0 5,5 Z"
         id="path4822" />
    </marker>
    <marker
       style="overflow:visible"
       id="Arrow1Lstart"
       refX="0"
       refY="0"
       orient="auto"
       inkscape:stockid="Arrow1Lstart"
       inkscape:isstock="true">
      <path
         transform="matrix(0.8,0,0,0.8,10,0)"
         style="fill:#000000;fill-opacity:1;fill-rule:evenodd;stroke:#000000;stroke-width:1pt;stroke-opacity:1"
         d="M 0,0 5,-5 -12.5,0 5,5 Z"
         id="path4816" />
    </marker>
  </defs>
  <sodipodi:namedview
     id="base"
     pagecolor="#ffffff"
     bordercolor="#666666"
     borderopacity="1.0"
     inkscape:pageopacity="0.0"
     inkscape:pageshadow="2"
     inkscape:zoom="4"
     inkscape:cx="294.20638"
     inkscape:cy="86.331408"
     inkscape:document-units="mm"
     inkscape:current-layer="layer1"
     inkscape:document-rotation="0"
     showgrid="false"
     showguides="true"
     inkscape:guide-bbox="true"
     inkscape:window-width="1920"
     inkscape:window-height="1080"
     inkscape:window-x="0"
     inkscape:window-y="0"
     inkscape:window-maximized="1">
    <sodipodi:guide
       position="103.94275,36.753902"
       orientation="0,-1"
       id="guide4751" />
    <sodipodi:guide
       position="75.401962,-0.045887293"
       orientation="0,-1"
       id="guide4753" />
  </sodipodi:namedview>
  <metadata
     id="metadata4163">
    <rdf:RDF>
      <cc:Work
         rdf:about="">
        <dc:format>image/svg+xml</dc:format>
        <dc:type
           rdf:resource="http://purl.org/dc/dcmitype/StillImage" />
        <dc:title></dc:title>
      </cc:Work>
    </rdf:RDF>
  </metadata>
  <g
     inkscape:label="Layer 1"
     inkscape:groupmode="layer"
     id="layer1"
     transform="translate(-9.7252135,-19.780654)"
     style="display:inline">
    <path
       style="color:#000000;font-style:normal;font-variant:normal;font-weight:normal;font-stretch:normal;font-size:medium;line-height:normal;font-family:sans-serif;font-variant-ligatures:normal;font-variant-position:normal;font-variant-caps:normal;font-variant-numeric:normal;font-variant-alternates:normal;font-variant-east-asian:normal;font-feature-settings:normal;font-variation-settings:normal;text-indent:0;text-align:start;text-decoration:none;text-decoration-line:none;text-decoration-style:solid;text-decoration-color:#000000;letter-spacing:normal;word-spacing:normal;text-transform:none;writing-mode:lr-tb;direction:ltr;text-orientation:mixed;dominant-baseline:auto;baseline-shift:baseline;text-anchor:start;white-space:normal;shape-padding:0;shape-margin:0;inline-size:0;clip-rule:nonzero;display:inline;overflow:visible;visibility:visible;opacity:1;isolation:auto;mix-blend-mode:normal;color-interpolation:sRGB;color-interpolation-filters:linearRGB;solid-color:#000000;solid-opacity:1;vector-effect:none;fill:#000000;fill-opacity:1;fill-rule:nonzero;stroke:none;stroke-linecap:butt;stroke-linejoin:miter;stroke-miterlimit:4;stroke-dasharray:none;stroke-dashoffset:0;stroke-opacity:1;color-rendering:auto;image-rendering:auto;shape-rendering:auto;text-rendering:auto;enable-background:accumulate;stop-color:#000000;stop-opacity:1"
       d="m 9.7246094,27.080078 v 0.558594 36.195312 H 67.947266 V 27.080078 Z m 1.1210936,1.119141 H 66.826172 V 62.712891 H 10.845703 Z"
       id="rect4729" />
    <path
       style="color:#000000;font-style:normal;font-variant:normal;font-weight:normal;font-stretch:normal;font-size:medium;line-height:normal;font-family:sans-serif;font-variant-ligatures:normal;font-variant-position:normal;font-variant-caps:normal;font-variant-numeric:normal;font-variant-alternates:normal;font-variant-east-asian:normal;font-feature-settings:normal;font-variation-settings:normal;text-indent:0;text-align:start;text-decoration:none;text-decoration-line:none;text-decoration-style:solid;text-decoration-color:#000000;letter-spacing:normal;word-spacing:normal;text-transform:none;writing-mode:lr-tb;direction:ltr;text-orientation:mixed;dominant-baseline:auto;baseline-shift:baseline;text-anchor:start;white-space:normal;shape-padding:0;shape-margin:0;inline-size:0;clip-rule:nonzero;display:inline;overflow:visible;visibility:visible;opacity:1;isolation:auto;mix-blend-mode:normal;color-interpolation:sRGB;color-interpolation-filters:linearRGB;solid-color:#000000;solid-opacity:1;vector-effect:none;fill:#000000;fill-opacity:1;fill-rule:nonzero;stroke:none;stroke-linecap:square;stroke-linejoin:miter;stroke-miterlimit:4;stroke-dasharray:none;stroke-dashoffset:0;stroke-opacity:1;paint-order:fill markers stroke;color-rendering:auto;image-rendering:auto;shape-rendering:auto;text-rendering:auto;enable-background:accumulate;stop-color:#000000;stop-opacity:1"
       d="m 113.66797,27.080078 -0.16211,0.279297 -21.058594,36.474609 H 150.8418 l 21.2207,-36.753906 z m 0.64453,1.119141 h 55.81055 L 150.19531,62.712891 H 94.386719 Z"
       id="rect4729-9" />
    <path
       style="color:#000000;font-style:normal;font-variant:normal;font-weight:normal;font-stretch:normal;font-size:medium;line-height:normal;font-family:sans-serif;font-variant-ligatures:normal;font-variant-position:normal;font-variant-caps:normal;font-variant-numeric:normal;font-variant-alternates:normal;font-variant-east-asian:normal;font-feature-settings:normal;font-variation-settings:normal;text-indent:0;text-align:start;text-decoration:none;text-decoration-line:none;text-decoration-style:solid;text-decoration-color:#000000;letter-spacing:normal;word-spacing:normal;text-transform:none;writing-mode:lr-tb;direction:ltr;text-orientation:mixed;dominant-baseline:auto;baseline-shift:baseline;text-anchor:start;white-space:normal;shape-padding:0;shape-margin:0;inline-size:0;clip-rule:nonzero;display:inline;overflow:visible;visibility:visible;isolation:auto;mix-blend-mode:normal;color-interpolation:sRGB;color-interpolation-filters:linearRGB;solid-color:#000000;solid-opacity:1;vector-effect:none;fill:#000000;fill-opacity:1;fill-rule:nonzero;stroke:none;stroke-linecap:butt;stroke-linejoin:miter;stroke-miterlimit:4;stroke-dasharray:4.544, 0.568;stroke-dashoffset:0;stroke-opacity:1;color-rendering:auto;image-rendering:auto;shape-rendering:auto;text-rendering:auto;enable-background:accumulate;stop-color:#000000"
       d="m 92.140625,27.080078 v 0.970703 h 0.568359 v -0.970703 z m 0,1.53711 v 4.544921 h 0.568359 v -4.544921 z m 0,5.113281 v 4.542969 h 0.568359 v -4.542969 z m 0,5.111328 v 4.544922 h 0.568359 v -4.544922 z m 0,5.111328 v 4.544922 h 0.568359 v -4.544922 z m 0,5.113281 v 4.542969 h 0.568359 v -4.542969 z m 0,5.111328 v 4.544922 h 0.568359 v -4.544922 z m 0,5.111328 v 4.544922 h 0.568359 v -4.544922 z"
       id="path5833" />
    <g
       id="g5823">
      <g
         id="path5825"
         style="opacity:1">
        <path
           style="color:#000000;font-style:normal;font-variant:normal;font-weight:normal;font-stretch:normal;font-size:medium;line-height:normal;font-family:sans-serif;font-variant-ligatures:normal;font-variant-position:normal;font-variant-caps:normal;font-variant-numeric:normal;font-variant-alternates:normal;font-variant-east-asian:normal;font-feature-settings:normal;font-variation-settings:normal;text-indent:0;text-align:start;text-decoration:none;text-decoration-line:none;text-decoration-style:solid;text-decoration-color:#000000;letter-spacing:normal;word-spacing:normal;text-transform:none;writing-mode:lr-tb;direction:ltr;text-orientation:mixed;dominant-baseline:auto;baseline-shift:baseline;text-anchor:start;white-space:normal;shape-padding:0;shape-margin:0;inline-size:0;clip-rule:nonzero;display:inline;overflow:visible;visibility:visible;isolation:auto;mix-blend-mode:normal;color-interpolation:sRGB;color-interpolation-filters:linearRGB;solid-color:#000000;solid-opacity:1;vector-effect:none;fill:#000000;fill-opacity:1;fill-rule:evenodd;stroke:none;stroke-width:0.1136pt;stroke-linecap:butt;stroke-linejoin:miter;stroke-miterlimit:4;stroke-dasharray:none;stroke-dashoffset:0;stroke-opacity:1;color-rendering:auto;image-rendering:auto;shape-rendering:auto;text-rendering:auto;enable-background:accumulate;stop-color:#000000;stop-opacity:1"
           d="m 92.424542,26.424609 0.568,0.98264 h -1.136 z"
           id="path5829" />
        <path
           style="color:#000000;font-style:normal;font-variant:normal;font-weight:normal;font-stretch:normal;font-size:medium;line-height:normal;font-family:sans-serif;font-variant-ligatures:normal;font-variant-position:normal;font-variant-caps:normal;font-variant-numeric:normal;font-variant-alternates:normal;font-variant-east-asian:normal;font-feature-settings:normal;font-variation-settings:normal;text-indent:0;text-align:start;text-decoration:none;text-decoration-line:none;text-decoration-style:solid;text-decoration-color:#000000;letter-spacing:normal;word-spacing:normal;text-transform:none;writing-mode:lr-tb;direction:ltr;text-orientation:mixed;dominant-baseline:auto;baseline-shift:baseline;text-anchor:start;white-space:normal;shape-padding:0;shape-margin:0;inline-size:0;clip-rule:nonzero;display:inline;overflow:visible;visibility:visible;isolation:auto;mix-blend-mode:normal;color-interpolation:sRGB;color-interpolation-filters:linearRGB;solid-color:#000000;solid-opacity:1;vector-effect:none;fill:#000000;fill-opacity:1;fill-rule:evenodd;stroke:none;stroke-linecap:butt;stroke-linejoin:miter;stroke-miterlimit:4;stroke-dasharray:none;stroke-dashoffset:0;stroke-opacity:1;color-rendering:auto;image-rendering:auto;shape-rendering:auto;text-rendering:auto;enable-background:accumulate;stop-color:#000000;stop-opacity:1"
           d="m 92.423828,26.273438 -0.06445,0.113281 -0.634766,1.095703 h 1.398438 z m 0.002,0.302734 0.435547,0.755859 h -0.873047 z"
           id="path5831" />
      </g>
    </g>
    <path
       d="m 85.977079,46.632079 q 0,-0.0762 0.01693,-0.110067 l 1.253067,-4.995335 q 0,0 0.0085,-0.06773 0.01693,-0.05927 0.01693,-0.0762 0,-0.0508 -0.01693,-0.0762 -0.01693,-0.0254 -0.118534,-0.04233 -0.09313,-0.0254 -0.287867,-0.0254 -0.2032,0 -0.2032,-0.09313 0,-0.0762 0.0254,-0.110067 0.03387,-0.04233 0.06773,-0.0508 0.03387,-0.0085 0.1016,-0.01693 l 0.8382,-0.06773 q 0.0508,-0.01693 0.135467,-0.01693 0.118533,0 0.118533,0.1016 0,0.03387 -0.0254,0.110067 l -0.618067,2.472267 q 0.186267,-0.1778 0.287867,-0.262466 0.110067,-0.09313 0.338667,-0.186267 0.237067,-0.1016 0.499533,-0.1016 0.372534,0 0.626534,0.2032 0.254,0.2032 0.254,0.677334 0,0.516466 -0.516467,1.888067 -0.1524,0.4572 -0.1524,0.635 0,0.245534 0.186267,0.245534 0.474133,0 0.7874,-1.058334 0.0254,-0.1016 0.04233,-0.118534 0.0254,-0.0254 0.1016,-0.0254 0.127,0 0.127,0.08467 0,0.0254 -0.03387,0.1524 -0.03387,0.127 -0.118533,0.3302 -0.08467,0.194734 -0.203201,0.381001 -0.118533,0.1778 -0.313266,0.313266 -0.186267,0.127 -0.4064,0.127 -0.296334,0 -0.474134,-0.194733 -0.169333,-0.194733 -0.169333,-0.4826 0,-0.186267 0.135466,-0.541867 0.491067,-1.405467 0.491067,-1.871134 0,-0.5588 -0.389467,-0.5588 -0.626533,0 -1.126067,0.804333 -0.160866,0.287867 -0.237067,0.592667 -0.0254,0.09313 -0.06773,0.2794 -0.04233,0.1778 -0.06773,0.270934 -0.01693,0.0762 -0.110067,0.440267 -0.08467,0.3556 -0.160867,0.6604 -0.0762,0.3048 -0.09313,0.364067 -0.0254,0.08467 -0.110067,0.160866 -0.08467,0.0762 -0.2032,0.0762 -0.110067,0 -0.1778,-0.06773 -0.05927,-0.06773 -0.05927,-0.1524 z"
       style="font-style:italic;font-variant:normal;font-weight:500;font-stretch:normal;font-size:8.46667px;line-height:1.25;font-family:'CMU Serif';-inkscape-font-specification:'CMU Serif, Medium Italic';font-variant-ligatures:normal;font-variant-caps:normal;font-variant-numeric:normal;font-variant-east-asian:normal;letter-spacing:0px;word-spacing:0px;writing-mode:lr-tb;direction:ltr;fill:#000000;fill-opacity:1;stroke:none;stroke-width:0.264583"
       id="path5680" />
    <path
       d="m 100.64516,26.926524 q 0,-0.211667 0.127,-0.338667 0.127,-0.127 0.29633,-0.127 0.11007,0 0.19474,0.06773 0.0931,0.0762 0.0931,0.2032 0,0.143934 -0.1016,0.262467 -0.0931,0.118534 -0.27093,0.1524 0.11006,0.1524 0.33866,0.1524 0.31327,0 0.4826,-0.728133 0.1016,-0.364067 0.23707,-1.049867 l 0.61807,-3.158068 h -0.52494 q -0.21166,0 -0.21166,-0.09313 0,-0.118533 0.0508,-0.143933 0.0508,-0.0254 0.1778,-0.0254 h 0.5588 l 0.1778,-0.931334 q 0.28786,-1.388534 1.10066,-1.388534 0.2794,0 0.4826,0.1524 0.21167,0.143934 0.21167,0.406401 0,0.211666 -0.127,0.338666 -0.127,0.127 -0.29633,0.127 -0.11007,0 -0.2032,-0.06773 -0.0847,-0.0762 -0.0847,-0.2032 0,-0.143933 0.0931,-0.262467 0.1016,-0.118533 0.2794,-0.1524 -0.127,-0.1524 -0.3556,-0.1524 -0.14393,0 -0.24553,0.143933 -0.1016,0.143934 -0.13547,0.270934 -0.0339,0.118533 -0.0847,0.347133 -0.1016,0.457201 -0.27094,1.371601 h 0.6604 q 0.0847,0 0.11854,0.0085 0.0423,0 0.0677,0.0254 0.0254,0.0254 0.0254,0.0762 0,0.1016 -0.0508,0.127 -0.0508,0.0254 -0.1778,0.0254 h -0.69427 l -0.59266,3.039534 q -0.0508,0.245534 -0.11854,0.474134 -0.0593,0.237066 -0.21166,0.6604 -0.1524,0.423333 -0.4064,0.6858 -0.24554,0.262467 -0.55034,0.262467 -0.26246,0 -0.46566,-0.1524 -0.21167,-0.143933 -0.21167,-0.4064 z"
       style="font-style:italic;font-variant:normal;font-weight:500;font-stretch:normal;font-size:8.46667px;line-height:1.25;font-family:'CMU Serif';-inkscape-font-specification:'CMU Serif, Medium Italic';font-variant-ligatures:normal;font-variant-caps:normal;font-variant-numeric:normal;font-variant-east-asian:normal;letter-spacing:0px;word-spacing:0px;writing-mode:lr-tb;direction:ltr;fill:#000000;fill-opacity:1;stroke:none;stroke-width:0.264583"
       id="path5690" />
    <path
       style="color:#000000;font-style:normal;font-variant:normal;font-weight:normal;font-stretch:normal;font-size:medium;line-height:normal;font-family:sans-serif;font-variant-ligatures:normal;font-variant-position:normal;font-variant-caps:normal;font-variant-numeric:normal;font-variant-alternates:normal;font-variant-east-asian:normal;font-feature-settings:normal;font-variation-settings:normal;text-indent:0;text-align:start;text-decoration:none;text-decoration-line:none;text-decoration-style:solid;text-decoration-color:#000000;letter-spacing:normal;word-spacing:normal;text-transform:none;writing-mode:lr-tb;direction:ltr;text-orientation:mixed;dominant-baseline:auto;baseline-shift:baseline;text-anchor:start;white-space:normal;shape-padding:0;shape-margin:0;inline-size:0;clip-rule:nonzero;display:inline;overflow:visible;visibility:visible;isolation:auto;mix-blend-mode:normal;color-interpolation:sRGB;color-interpolation-filters:linearRGB;solid-color:#000000;solid-opacity:1;vector-effect:none;fill:#000000;fill-opacity:1;fill-rule:nonzero;stroke:none;stroke-linecap:butt;stroke-linejoin:miter;stroke-miterlimit:4;stroke-dasharray:0.269804, 0.809411;stroke-dashoffset:0;stroke-opacity:1;color-rendering:auto;image-rendering:auto;shape-rendering:auto;text-rendering:auto;enable-background:accumulate;stop-color:#000000"
       d="m 94.144531,26.945312 v 0.269532 h 0.269531 v -0.269532 z m 1.078125,0 v 0.269532 h 0.269532 v -0.269532 z m 1.080078,0 v 0.269532 h 0.269532 v -0.269532 z m 1.078125,0 v 0.269532 h 0.271485 v -0.269532 z m 1.080079,0 v 0.269532 h 0.269531 v -0.269532 z m 1.078124,0 v 0.269532 h 0.271485 v -0.269532 z m 1.080078,0 v 0.269532 h 0.26953 v -0.269532 z m 1.08008,0 v 0.269532 h 0.26953 v -0.269532 z m 1.07812,0 v 0.269532 h 0.26954 v -0.269532 z m 1.08008,0 v 0.269532 h 0.26953 v -0.269532 z m 1.07813,0 v 0.269532 h 0.26953 v -0.269532 z m 1.08007,0 v 0.269532 h 0.26954 v -0.269532 z m 1.07813,0 v 0.269532 h 0.27148 v -0.269532 z m 1.08008,0 v 0.269532 h 0.26953 v -0.269532 z m 1.08008,0 v 0.269532 h 0.26953 v -0.269532 z m 1.07812,0 v 0.269532 h 0.26953 v -0.269532 z m 1.08008,0 v 0.269532 h 0.26953 v -0.269532 z"
       id="path5879" />
    <g
       id="g5861">
      <g
         id="path5871"
         style="opacity:1">
        <path
           style="color:#000000;font-style:normal;font-variant:normal;font-weight:normal;font-stretch:normal;font-size:medium;line-height:normal;font-family:sans-serif;font-variant-ligatures:normal;font-variant-position:normal;font-variant-caps:normal;font-variant-numeric:normal;font-variant-alternates:normal;font-variant-east-asian:normal;font-feature-settings:normal;font-variation-settings:normal;text-indent:0;text-align:start;text-decoration:none;text-decoration-line:none;text-decoration-style:solid;text-decoration-color:#000000;letter-spacing:normal;word-spacing:normal;text-transform:none;writing-mode:lr-tb;direction:ltr;text-orientation:mixed;dominant-baseline:auto;baseline-shift:baseline;text-anchor:start;white-space:normal;shape-padding:0;shape-margin:0;inline-size:0;clip-rule:nonzero;display:inline;overflow:visible;visibility:visible;isolation:auto;mix-blend-mode:normal;color-interpolation:sRGB;color-interpolation-filters:linearRGB;solid-color:#000000;solid-opacity:1;vector-effect:none;fill:#000000;fill-opacity:1;fill-rule:evenodd;stroke:none;stroke-width:0.107922pt;stroke-linecap:butt;stroke-linejoin:miter;stroke-miterlimit:4;stroke-dasharray:none;stroke-dashoffset:0;stroke-opacity:1;color-rendering:auto;image-rendering:auto;shape-rendering:auto;text-rendering:auto;enable-background:accumulate;stop-color:#000000;stop-opacity:1"
           d="m 111.38005,27.08008 -0.5396,0.539608 1.88862,-0.539608 -1.88862,-0.539608 z"
           id="path5875" />
        <path
           style="color:#000000;font-style:normal;font-variant:normal;font-weight:normal;font-stretch:normal;font-size:medium;line-height:normal;font-family:sans-serif;font-variant-ligatures:normal;font-variant-position:normal;font-variant-caps:normal;font-variant-numeric:normal;font-variant-alternates:normal;font-variant-east-asian:normal;font-feature-settings:normal;font-variation-settings:normal;text-indent:0;text-align:start;text-decoration:none;text-decoration-line:none;text-decoration-style:solid;text-decoration-color:#000000;letter-spacing:normal;word-spacing:normal;text-transform:none;writing-mode:lr-tb;direction:ltr;text-orientation:mixed;dominant-baseline:auto;baseline-shift:baseline;text-anchor:start;white-space:normal;shape-padding:0;shape-margin:0;inline-size:0;clip-rule:nonzero;display:inline;overflow:visible;visibility:visible;isolation:auto;mix-blend-mode:normal;color-interpolation:sRGB;color-interpolation-filters:linearRGB;solid-color:#000000;solid-opacity:1;vector-effect:none;fill:#000000;fill-opacity:1;fill-rule:evenodd;stroke:none;stroke-linecap:butt;stroke-linejoin:miter;stroke-miterlimit:4;stroke-dasharray:none;stroke-dashoffset:0;stroke-opacity:1;color-rendering:auto;image-rendering:auto;shape-rendering:auto;text-rendering:auto;enable-background:accumulate;stop-color:#000000;stop-opacity:1"
           d="m 110.59375,26.394531 0.68555,0.685547 -0.68555,0.685547 2.39648,-0.685547 z m 0.49219,0.291016 1.38281,0.394531 -1.38281,0.394531 0.39648,-0.394531 -0.0508,-0.05078 z"
           id="path5877" />
      </g>
      <g
         id="path5863"
         style="opacity:1">
        <path
           style="color:#000000;font-style:normal;font-variant:normal;font-weight:normal;font-stretch:normal;font-size:medium;line-height:normal;font-family:sans-serif;font-variant-ligatures:normal;font-variant-position:normal;font-variant-caps:normal;font-variant-numeric:normal;font-variant-alternates:normal;font-variant-east-asian:normal;font-feature-settings:normal;font-variation-settings:normal;text-indent:0;text-align:start;text-decoration:none;text-decoration-line:none;text-decoration-style:solid;text-decoration-color:#000000;letter-spacing:normal;word-spacing:normal;text-transform:none;writing-mode:lr-tb;direction:ltr;text-orientation:mixed;dominant-baseline:auto;baseline-shift:baseline;text-anchor:start;white-space:normal;shape-padding:0;shape-margin:0;inline-size:0;clip-rule:nonzero;display:inline;overflow:visible;visibility:visible;isolation:auto;mix-blend-mode:normal;color-interpolation:sRGB;color-interpolation-filters:linearRGB;solid-color:#000000;solid-opacity:1;vector-effect:none;fill:#000000;fill-opacity:1;fill-rule:evenodd;stroke:none;stroke-width:0.107922pt;stroke-linecap:butt;stroke-linejoin:miter;stroke-miterlimit:4;stroke-dasharray:none;stroke-dashoffset:0;stroke-opacity:1;color-rendering:auto;image-rendering:auto;shape-rendering:auto;text-rendering:auto;enable-background:accumulate;stop-color:#000000;stop-opacity:1"
           d="m 95.223173,27.08008 0.539608,-0.539608 -1.888628,0.539608 1.888628,0.539608 z"
           id="path5867" />
        <path
           style="color:#000000;font-style:normal;font-variant:normal;font-weight:normal;font-stretch:normal;font-size:medium;line-height:normal;font-family:sans-serif;font-variant-ligatures:normal;font-variant-position:normal;font-variant-caps:normal;font-variant-numeric:normal;font-variant-alternates:normal;font-variant-east-asian:normal;font-feature-settings:normal;font-variation-settings:normal;text-indent:0;text-align:start;text-decoration:none;text-decoration-line:none;text-decoration-style:solid;text-decoration-color:#000000;letter-spacing:normal;word-spacing:normal;text-transform:none;writing-mode:lr-tb;direction:ltr;text-orientation:mixed;dominant-baseline:auto;baseline-shift:baseline;text-anchor:start;white-space:normal;shape-padding:0;shape-margin:0;inline-size:0;clip-rule:nonzero;display:inline;overflow:visible;visibility:visible;isolation:auto;mix-blend-mode:normal;color-interpolation:sRGB;color-interpolation-filters:linearRGB;solid-color:#000000;solid-opacity:1;vector-effect:none;fill:#000000;fill-opacity:1;fill-rule:evenodd;stroke:none;stroke-linecap:butt;stroke-linejoin:miter;stroke-miterlimit:4;stroke-dasharray:none;stroke-dashoffset:0;stroke-opacity:1;color-rendering:auto;image-rendering:auto;shape-rendering:auto;text-rendering:auto;enable-background:accumulate;stop-color:#000000;stop-opacity:1"
           d="m 96.009766,26.394531 -2.398438,0.685547 2.398438,0.685547 -0.685547,-0.685547 z m -0.494141,0.291016 -0.394531,0.394531 0.05078,0.05078 0.34375,0.34375 -1.380859,-0.394531 z"
           id="path5869" />
      </g>
    </g>
    <g
       id="path5458"
       style="opacity:1">
      <path
         style="color:#000000;font-style:normal;font-variant:normal;font-weight:normal;font-stretch:normal;font-size:medium;line-height:normal;font-family:sans-serif;font-variant-ligatures:normal;font-variant-position:normal;font-variant-caps:normal;font-variant-numeric:normal;font-variant-alternates:normal;font-variant-east-asian:normal;font-feature-settings:normal;font-variation-settings:normal;text-indent:0;text-align:start;text-decoration:none;text-decoration-line:none;text-decoration-style:solid;text-decoration-color:#000000;letter-spacing:normal;word-spacing:normal;text-transform:none;writing-mode:lr-tb;direction:ltr;text-orientation:mixed;dominant-baseline:auto;baseline-shift:baseline;text-anchor:start;white-space:normal;shape-padding:0;shape-margin:0;inline-size:0;clip-rule:nonzero;display:inline;overflow:visible;visibility:visible;isolation:auto;mix-blend-mode:normal;color-interpolation:sRGB;color-interpolation-filters:linearRGB;solid-color:#000000;solid-opacity:1;vector-effect:none;fill:#000000;fill-opacity:1;fill-rule:nonzero;stroke:none;stroke-linecap:butt;stroke-linejoin:miter;stroke-miterlimit:4;stroke-dasharray:none;stroke-dashoffset:0;stroke-opacity:1;color-rendering:auto;image-rendering:auto;shape-rendering:auto;text-rendering:auto;enable-background:accumulate;stop-color:#000000;stop-opacity:1"
         d="m 73.078125,45.865234 v 0.865235 h 7.804687 v -0.865235 z"
         id="path5777" />
      <g
         id="g5767">
        <g
           id="path5769"
           style="opacity:1">
          <path
             style="color:#000000;font-style:normal;font-variant:normal;font-weight:normal;font-stretch:normal;font-size:medium;line-height:normal;font-family:sans-serif;font-variant-ligatures:normal;font-variant-position:normal;font-variant-caps:normal;font-variant-numeric:normal;font-variant-alternates:normal;font-variant-east-asian:normal;font-feature-settings:normal;font-variation-settings:normal;text-indent:0;text-align:start;text-decoration:none;text-decoration-line:none;text-decoration-style:solid;text-decoration-color:#000000;letter-spacing:normal;word-spacing:normal;text-transform:none;writing-mode:lr-tb;direction:ltr;text-orientation:mixed;dominant-baseline:auto;baseline-shift:baseline;text-anchor:start;white-space:normal;shape-padding:0;shape-margin:0;inline-size:0;clip-rule:nonzero;display:inline;overflow:visible;visibility:visible;isolation:auto;mix-blend-mode:normal;color-interpolation:sRGB;color-interpolation-filters:linearRGB;solid-color:#000000;solid-opacity:1;vector-effect:none;fill:#000000;fill-opacity:1;fill-rule:evenodd;stroke:none;stroke-width:0.173pt;stroke-linecap:butt;stroke-linejoin:miter;stroke-miterlimit:4;stroke-dasharray:none;stroke-dashoffset:0;stroke-opacity:1;color-rendering:auto;image-rendering:auto;shape-rendering:auto;text-rendering:auto;enable-background:accumulate;stop-color:#000000;stop-opacity:1"
             d="m 81.88153,46.298596 -1.49645,0.865 v -1.73 z"
             id="path5773" />
          <path
             style="color:#000000;font-style:normal;font-variant:normal;font-weight:normal;font-stretch:normal;font-size:medium;line-height:normal;font-family:sans-serif;font-variant-ligatures:normal;font-variant-position:normal;font-variant-caps:normal;font-variant-numeric:normal;font-variant-alternates:normal;font-variant-east-asian:normal;font-feature-settings:normal;font-variation-settings:normal;text-indent:0;text-align:start;text-decoration:none;text-decoration-line:none;text-decoration-style:solid;text-decoration-color:#000000;letter-spacing:normal;word-spacing:normal;text-transform:none;writing-mode:lr-tb;direction:ltr;text-orientation:mixed;dominant-baseline:auto;baseline-shift:baseline;text-anchor:start;white-space:normal;shape-padding:0;shape-margin:0;inline-size:0;clip-rule:nonzero;display:inline;overflow:visible;visibility:visible;isolation:auto;mix-blend-mode:normal;color-interpolation:sRGB;color-interpolation-filters:linearRGB;solid-color:#000000;solid-opacity:1;vector-effect:none;fill:#000000;fill-opacity:1;fill-rule:evenodd;stroke:none;stroke-linecap:butt;stroke-linejoin:miter;stroke-miterlimit:4;stroke-dasharray:none;stroke-dashoffset:0;stroke-opacity:1;color-rendering:auto;image-rendering:auto;shape-rendering:auto;text-rendering:auto;enable-background:accumulate;stop-color:#000000;stop-opacity:1"
             d="m 80.269531,45.234375 v 2.128906 l 1.841797,-1.064453 -0.171875,-0.09961 z M 80.5,45.632812 81.652344,46.298828 80.5,46.964844 Z"
             id="path5775" />
        </g>
      </g>
    </g>
    <path
       style="color:#000000;font-style:normal;font-variant:normal;font-weight:normal;font-stretch:normal;font-size:medium;line-height:normal;font-family:sans-serif;font-variant-ligatures:normal;font-variant-position:normal;font-variant-caps:normal;font-variant-numeric:normal;font-variant-alternates:normal;font-variant-east-asian:normal;font-feature-settings:normal;font-variation-settings:normal;text-indent:0;text-align:start;text-decoration:none;text-decoration-line:none;text-decoration-style:solid;text-decoration-color:#000000;letter-spacing:normal;word-spacing:normal;text-transform:none;writing-mode:lr-tb;direction:ltr;text-orientation:mixed;dominant-baseline:auto;baseline-shift:baseline;text-anchor:start;white-space:normal;shape-padding:0;shape-margin:0;inline-size:0;clip-rule:nonzero;display:inline;overflow:visible;visibility:visible;opacity:1;isolation:auto;mix-blend-mode:normal;color-interpolation:sRGB;color-interpolation-filters:linearRGB;solid-color:#000000;solid-opacity:1;vector-effect:none;fill:#000000;fill-opacity:1;fill-rule:nonzero;stroke:none;stroke-linecap:butt;stroke-linejoin:bevel;stroke-miterlimit:4;stroke-dasharray:none;stroke-dashoffset:0;stroke-opacity:1;paint-order:markers stroke fill;color-rendering:auto;image-rendering:auto;shape-rendering:auto;text-rendering:auto;enable-background:accumulate;stop-color:#000000;stop-opacity:1"
       d="m 92.542969,55.083984 0.002,0.320313 c 1.863967,2.08e-4 3.638977,0.514522 5.18164,1.488281 l 0.171876,-0.269531 c -1.586274,-1.005615 -3.426518,-1.539101 -5.304688,-1.539063 -0.01634,-4.2e-5 -0.0325,-3.8e-5 -0.04883,0 -6.53e-4,2e-6 -0.0013,-10e-7 -0.002,0 z"
       id="path4758" />
    <path
       d="m 94.764916,52.236468 q 0,-0.252237 0.05045,-0.559506 0.05503,-0.307269 0.169686,-0.632883 0.114653,-0.325614 0.270581,-0.591608 0.160514,-0.270581 0.398991,-0.440267 0.238478,-0.174272 0.509059,-0.174272 0.678744,0 0.678744,0.999772 0,0.261408 -0.05503,0.573264 -0.05045,0.307269 -0.169687,0.637469 -0.114652,0.325614 -0.275166,0.591608 -0.155928,0.265995 -0.394406,0.440267 -0.238477,0.169686 -0.509058,0.169686 -0.674158,0 -0.674158,-1.01353 z m 0.339372,0.08714 q 0,0.568677 0.41275,0.568677 0.151342,0 0.275167,-0.07338 0.128411,-0.07796 0.215547,-0.192616 0.09172,-0.119239 0.1651,-0.298097 0.07338,-0.178859 0.119239,-0.343959 0.05045,-0.169686 0.09631,-0.385233 h -1.187803 q -0.09631,0.362303 -0.09631,0.724606 z m 0.151342,-0.9906 h 1.183216 q 0.0046,-0.0046 0.01834,-0.09631 0.01834,-0.09172 0.0321,-0.229305 0.01834,-0.142169 0.01834,-0.233892 0,-0.577849 -0.417336,-0.577849 -0.178859,0 -0.325614,0.10548 -0.146756,0.105481 -0.243064,0.284339 -0.09631,0.178858 -0.160514,0.362303 -0.06421,0.178858 -0.10548,0.385233 z"
       style="font-style:oblique;font-variant:normal;font-weight:500;font-stretch:normal;font-size:4.58611px;line-height:1.25;font-family:'CMU Sans Serif';-inkscape-font-specification:'CMU Sans Serif, Medium Oblique';font-variant-ligatures:normal;font-variant-caps:normal;font-variant-numeric:normal;font-variant-east-asian:normal;letter-spacing:0px;word-spacing:0px;writing-mode:lr-tb;direction:ltr;fill:#000000;fill-opacity:1;stroke:none;stroke-width:0.264583"
       id="path5984" />
  </g>
</svg>
